# xmcd
#
# Track frame offsets: 
#        150
#        12609
#        23981
#        40090
#        51775
#        63843
#        76967
#        87839
#        96731
#        105792
#        116053
#        128041
#        140649
#        151108
#        161055
#        171574
#        182550
#        193076
#
# Disc length: 2740 seconds
#
# Revision: 0
# Processed by: cddbd v1.5.2PL0 Copyright (c) Steve Scherf et al.
# Submitted via: ExactAudioCopyFreeDBPlugin 1.0
#
DISCID=f00ab212
DTITLE=Sam Cooke - Songs By Sam Cooke
DYEAR=1957
DGENRE=Soul
TTITLE0=You Send Me
TTITLE1=The Lonesome Road
TTITLE2=Tammy
TTITLE3=Ol' Man River
TTITLE4=Moonlight In Vermount
TTITLE5=Canadian Sunset
TTITLE6=Summertime
TTITLE7=Around The World
TTITLE8=Ain't Misbehaving'
TTITLE9=The Bells Of St. Mary's
TTITLE10=So Long
TTITLE11=Danny Boy
TTITLE12=That Lucky Old Sun
TTITLE13=The Soul Stirrers - I'll Come Running Back To You
TTITLE14=Dale Cooke - Forever
TTITLE15=Dale Cooke - Lovable
TTITLE16=The Soul Stirrers - That's All I Need To Know
TTITLE17=The Soul Stirrers - I Don't Want To Cry
EXTD=
EXTT0=
EXTT1=
EXTT2=
EXTT3=
EXTT4=
EXTT5=
EXTT6=
EXTT7=
EXTT8=
EXTT9=
EXTT10=
EXTT11=
EXTT12=
EXTT13=
EXTT14=
EXTT15=
EXTT16=
EXTT17=
PLAYORDER=
